<mxfile host="65bd71144e">
    <diagram id="g1a-sQaH-8_BQEifph7B" name="페이지-1">
        <mxGraphModel dx="1182" dy="494" grid="1" gridSize="10" guides="1" tooltips="1" connect="1" arrows="1" fold="1" page="0" pageScale="1" pageWidth="827" pageHeight="1169" math="0" shadow="0">
            <root>
                <mxCell id="0"/>
                <mxCell id="1" parent="0"/>
            </root>
        </mxGraphModel>
    </diagram>
</mxfile>